<svg xmlns="http://www.w3.org/2000/svg" viewBox="0 0 512 512">
  <rect width="512" height="512" rx="64" fill="#0a0a1a"/>
  <g transform="translate(56, 56)">
    <!-- 4x4 board -->
    <rect x="0" y="0" width="100" height="100" fill="#16213e"/>
    <rect x="100" y="0" width="100" height="100" fill="#1a1a2e"/>
    <rect x="200" y="0" width="100" height="100" fill="#16213e"/>
    <rect x="300" y="0" width="100" height="100" fill="#1a1a2e"/>
    <rect x="0" y="100" width="100" height="100" fill="#1a1a2e"/>
    <rect x="100" y="100" width="100" height="100" fill="#16213e"/>
    <rect x="200" y="100" width="100" height="100" fill="#1a1a2e"/>
    <rect x="300" y="100" width="100" height="100" fill="#16213e"/>
    <rect x="0" y="200" width="100" height="100" fill="#16213e"/>
    <rect x="100" y="200" width="100" height="100" fill="#1a1a2e"/>
    <rect x="200" y="200" width="100" height="100" fill="#16213e"/>
    <rect x="300" y="200" width="100" height="100" fill="#1a1a2e"/>
    <rect x="0" y="300" width="100" height="100" fill="#1a1a2e"/>
    <rect x="100" y="300" width="100" height="100" fill="#16213e"/>
    <rect x="200" y="300" width="100" height="100" fill="#1a1a2e"/>
    <rect x="300" y="300" width="100" height="100" fill="#16213e"/>
    <!-- Pieces -->
    <circle cx="150" cy="50" r="38" fill="#dc2626" stroke="#d4af37" stroke-width="3"/>
    <circle cx="350" cy="50" r="38" fill="#dc2626" stroke="#d4af37" stroke-width="3"/>
    <circle cx="50" cy="350" r="38" fill="#e8e0d0" stroke="#b0b0b0" stroke-width="3"/>
    <circle cx="250" cy="350" r="38" fill="#e8e0d0" stroke="#b0b0b0" stroke-width="3"/>
    <!-- Crown on king -->
    <path d="M130 42 L140 30 L150 42 L160 30 L170 42 L170 52 L130 52 Z" fill="#d4af37"/>
  </g>
</svg>
