<svg xmlns="http://www.w3.org/2000/svg" viewBox="0 0 192 192">
  <rect width="192" height="192" rx="32" fill="#0a0a1a"/>
  <g transform="translate(24, 24)">
    <!-- 4x4 mini board -->
    <rect x="0" y="0" width="36" height="36" fill="#16213e"/>
    <rect x="36" y="0" width="36" height="36" fill="#1a1a2e"/>
    <rect x="72" y="0" width="36" height="36" fill="#16213e"/>
    <rect x="108" y="0" width="36" height="36" fill="#1a1a2e"/>
    <rect x="0" y="36" width="36" height="36" fill="#1a1a2e"/>
    <rect x="36" y="36" width="36" height="36" fill="#16213e"/>
    <rect x="72" y="36" width="36" height="36" fill="#1a1a2e"/>
    <rect x="108" y="36" width="36" height="36" fill="#16213e"/>
    <rect x="0" y="72" width="36" height="36" fill="#16213e"/>
    <rect x="36" y="72" width="36" height="36" fill="#1a1a2e"/>
    <rect x="72" y="72" width="36" height="36" fill="#16213e"/>
    <rect x="108" y="72" width="36" height="36" fill="#1a1a2e"/>
    <rect x="0" y="108" width="36" height="36" fill="#1a1a2e"/>
    <rect x="36" y="108" width="36" height="36" fill="#16213e"/>
    <rect x="72" y="108" width="36" height="36" fill="#1a1a2e"/>
    <rect x="108" y="108" width="36" height="36" fill="#16213e"/>
    <!-- Pieces -->
    <circle cx="54" cy="18" r="14" fill="#dc2626" stroke="#d4af37" stroke-width="2"/>
    <circle cx="126" cy="18" r="14" fill="#dc2626" stroke="#d4af37" stroke-width="2"/>
    <circle cx="18" cy="126" r="14" fill="#e8e0d0" stroke="#b0b0b0" stroke-width="2"/>
    <circle cx="90" cy="126" r="14" fill="#e8e0d0" stroke="#b0b0b0" stroke-width="2"/>
  </g>
</svg>
